<svg width="246" height="181" viewBox="0 0 246 181" fill="none" xmlns="http://www.w3.org/2000/svg">
<path d="M222.839 76.5376L233.805 113.583C235.181 118.233 232.528 123.118 227.877 124.494L207.11 130.642L203.787 119.416L217.538 115.346C219.862 114.658 221.189 112.214 220.502 109.89L213.689 86.8769C213.002 84.5532 210.558 83.2256 208.234 83.9134L194.482 87.9841L191.159 76.7583L211.927 70.6107C216.578 69.2338 221.462 71.8872 222.839 76.5376Z" fill="#D8D7DA"/>
<path d="M196.772 75.0963L191.159 76.7578L194.482 87.9836L200.095 86.3222L196.772 75.0963Z" fill="#ACABB1"/>
<path d="M209.399 117.755L203.787 119.416L207.11 130.642L212.722 128.98L209.399 117.755Z" fill="#ACABB1"/>
<path d="M186.756 61.8836L110.982 84.314L133.62 160.79L209.394 138.359L186.756 61.8836Z" fill="#FDD844"/>
<path d="M186.756 61.8836L190.89 75.8484C190.44 76.0304 189.981 76.1908 189.507 76.3312C188.404 76.6576 187.268 76.8532 186.124 76.9173C184.183 80.7944 180.693 83.8237 176.383 85.0998C171.233 86.6242 165.909 85.4164 161.977 82.322L163.105 86.1305C164.777 91.7798 161.543 97.7338 155.893 99.4061C152.495 100.412 148.986 99.6439 146.366 97.6388L152.101 117.012C154.162 123.975 150.173 131.318 143.21 133.379C136.247 135.44 128.904 131.451 126.843 124.489L116.292 88.847L112.643 89.927L110.982 84.3142L186.756 61.8839L186.756 61.8836Z" fill="#FDAB08"/>
<path d="M193.068 57.3754C193.446 58.0116 193.751 58.7025 193.97 59.4435C195.392 64.2481 192.65 69.2966 187.846 70.719C185.822 71.3179 183.756 71.1755 181.934 70.4541C181.669 74.5587 178.895 78.2522 174.722 79.4875C169.376 81.07 163.756 78.0176 162.173 72.6714L161.218 69.4439L152.799 71.9362L157.492 87.7927C157.871 89.0725 157.694 90.3825 157.107 91.4691C156.515 92.5538 155.512 93.4152 154.232 93.7941C151.676 94.5509 148.988 93.0908 148.231 90.5342L146.736 85.4824C146.357 84.2025 145.495 83.1999 144.411 82.6084C143.324 82.0205 142.014 81.8436 140.734 82.2225C138.178 82.9793 136.718 85.6673 137.474 88.2239L146.488 118.674C147.061 120.61 146.796 122.6 145.902 124.244C145.009 125.888 143.485 127.194 141.549 127.767C137.673 128.914 133.603 126.704 132.455 122.828L120.243 81.5727L109.803 84.6632C103.298 86.5888 96.3152 83.0242 94.3325 76.5328C92.6917 71.155 94.9173 65.5361 99.3963 62.6322C98.7276 55.2174 103.347 48.1149 110.758 45.9209C110.943 45.8661 111.129 45.8205 111.313 45.7722L111.312 45.7693C111.645 42.5116 112.601 39.3713 114.1 36.5135C117.181 30.6292 122.55 25.9478 129.425 23.9125C139.307 20.9874 149.554 24.3398 155.898 31.6433C155.922 31.6728 155.948 31.6987 155.969 31.7291C156.07 31.8429 156.165 31.958 156.26 32.0735C156.306 32.1241 156.345 32.1737 156.387 32.2249C156.488 32.3479 156.586 32.4714 156.683 32.5953C158.446 30.9291 160.618 29.6359 163.104 28.8999C163.604 28.7521 164.105 28.6311 164.604 28.5323C171.947 27.1066 179.305 31.0116 182.262 37.8439C182.301 37.8415 182.343 37.8383 182.382 37.8359C185.889 37.5792 189.287 38.8501 191.761 41.2068C193.217 42.598 194.355 44.3674 194.996 46.4211C196.208 50.289 195.338 54.3194 193.068 57.3754Z" fill="white"/>
<path d="M211.5 137.737L131.516 161.414C128.028 162.446 126.038 166.11 127.07 169.597C128.103 173.085 131.767 175.075 135.254 174.043L215.238 150.366C218.725 149.334 220.716 145.67 219.683 142.182C218.651 138.695 214.987 136.705 211.5 137.737Z" fill="#D8D7DA"/>
<path d="M130.581 56.6887C128.135 48.4265 119.589 43.6335 111.312 45.7695C111.645 42.5117 112.601 39.3714 114.099 36.5136C121.769 36.1428 129.14 39.4001 134.055 45.1129C137.451 49.0592 135.573 55.2109 130.581 56.6887Z" fill="#D8D7DA"/>
<path d="M191.761 41.2064C192.077 48.8208 188.821 56.1265 183.143 61.0084C179.199 64.3988 173.054 62.5124 171.578 57.5255C179.98 55.0382 184.797 46.2412 182.382 37.8355C185.889 37.5788 189.287 38.8498 191.761 41.2064Z" fill="#D8D7DA"/>
<path d="M169.489 38.6087C170.396 41.6758 170.868 44.8269 170.901 47.9789C170.957 53.126 166.048 56.8768 161.106 55.4361C162.428 50.9089 162.507 45.9589 161.069 41.101C160.079 37.7558 158.462 34.7671 156.388 32.2248C156.488 32.3478 156.586 32.4714 156.683 32.5953C158.446 30.929 160.618 29.6358 163.104 28.8998C163.604 28.752 164.105 28.631 164.604 28.5322C166.772 31.5866 168.409 34.9629 169.489 38.6087Z" fill="#D8D7DA"/>
<path d="M139.58 64.4023L131.16 66.8945L132.406 71.1041L140.826 68.6118L139.58 64.4023Z" fill="black"/>
<path d="M172.188 42.2024L176.217 40.4589C174.342 36.1265 169.508 33.8714 164.973 35.2139L166.219 39.4234C168.628 38.7105 171.194 39.9052 172.188 42.2024Z" fill="black"/>
<path d="M148.053 39.3781L151.505 36.665C146.694 30.5438 138.761 28.0164 131.294 30.2266L132.541 34.4361C138.271 32.7397 144.36 34.6795 148.053 39.3781Z" fill="black"/>
<path d="M113.874 56.4444L112.627 52.2348C108.363 53.4972 105.556 57.6206 105.955 62.0397L110.327 61.6454C110.116 59.3029 111.607 57.1152 113.874 56.4444Z" fill="black"/>
<path d="M126.794 72.7659L125.548 68.5564L106.689 74.1387C105.916 74.3676 105.03 73.9818 104.831 73.3292C104.593 72.5485 105.139 71.9893 105.369 71.8399L102.98 68.1569C101.244 69.2827 99.7689 71.7827 100.632 74.6109C101.527 77.5437 104.872 79.2551 107.936 78.3482L126.794 72.7659Z" fill="black"/>
<path d="M211.304 68.5056L192.641 74.0301L191.803 71.1973C195.611 68.4818 197.475 63.5501 196.075 58.8203C195.945 58.3809 195.789 57.9497 195.607 57.5303C197.757 53.9822 198.318 49.6783 197.092 45.7627C195.238 39.8451 189.718 35.7686 183.619 35.6121C179.602 28.1047 170.783 24.3372 162.481 26.7945C160.466 27.3911 158.611 28.3064 156.945 29.5253C153.759 26.0856 149.757 23.517 145.255 22.0397C139.907 20.2841 134.218 20.204 128.802 21.8071C118.464 24.8673 110.952 33.5194 109.317 44.0788C101.92 46.6556 96.9918 53.7564 97.1401 61.5495C92.4961 65.2029 90.485 71.4432 92.2337 77.1741C94.4522 84.4436 102.058 88.6961 109.49 87.0087L130.892 159.308C126.25 160.683 123.591 165.578 124.965 170.22C126.339 174.863 131.234 177.521 135.877 176.147L215.861 152.47C220.503 151.096 223.162 146.201 221.788 141.559C220.414 136.916 215.519 134.257 210.876 135.632L209.838 132.123L228.501 126.599C234.304 124.881 237.627 118.762 235.91 112.96L224.944 75.9144C223.226 70.1112 217.107 66.7878 211.304 68.5056ZM96.4327 75.8923C95.1246 71.6055 96.8343 66.9099 100.591 64.4734L101.701 63.7533L101.582 62.4347C100.997 55.9392 105.118 49.8796 111.381 48.0254C111.522 47.9838 111.663 47.9481 111.804 47.9119L112.134 47.8271C119.177 46.1646 126.398 50.2883 128.477 57.311L132.686 56.0649C130.224 47.7466 122.292 42.5138 113.973 43.119C115.829 34.9849 121.892 28.4312 130.049 26.0166C138.918 23.3913 148.32 26.1915 154.297 33.1529C154.539 33.434 154.775 33.7191 155.002 34.01L155.048 34.0677C156.818 36.3464 158.134 38.916 158.965 41.7236C160.235 46.0157 160.248 50.5449 159.001 54.8206L163.215 56.0494C164.699 50.9632 164.684 45.5784 163.174 40.4772C162.377 37.7832 161.202 35.2737 159.671 32.9795C160.898 32.1053 162.254 31.4398 163.727 31.0038C170.389 29.0317 177.491 32.347 180.246 38.715L180.475 39.2431C182.035 46.2326 177.923 53.3572 170.955 55.4198L172.201 59.6294C180.77 57.093 186.063 48.7536 185.075 40.1653C188.68 40.8355 191.771 43.4623 192.902 47.0746C193.847 50.0891 193.25 53.4509 191.306 56.067L190.434 57.2409L191.181 58.4978C191.473 58.9881 191.703 59.5155 191.866 60.0661C192.942 63.7026 190.859 67.537 187.223 68.6135C185.735 69.054 184.186 68.9848 182.744 68.4129L179.939 67.301L179.744 70.3127C179.532 73.6045 177.263 76.4454 174.099 77.3821C169.92 78.6189 165.515 76.2261 164.278 72.0477L162.7 66.7155L150.071 70.4539L155.387 88.4153C155.8 89.8081 155.002 91.2765 153.609 91.6887C152.217 92.1009 150.748 91.3035 150.336 89.9107L148.841 84.8592C147.741 81.1454 143.825 79.0181 140.111 80.1174C136.397 81.2167 134.27 85.1328 135.369 88.8468L144.383 119.297C145.185 122.005 143.634 124.86 140.926 125.662C138.218 126.464 135.362 124.913 134.56 122.204L121.725 78.8446L109.181 82.5577C103.763 84.1617 98.044 81.1714 96.4327 75.8923ZM212.122 139.841C214.444 139.154 216.891 140.484 217.578 142.805C218.265 145.126 216.936 147.573 214.615 148.261L134.631 171.937C132.31 172.624 129.862 171.295 129.175 168.974C128.488 166.652 129.817 164.205 132.139 163.518L190.373 146.28L189.126 142.07L135.102 158.062L113.71 85.7959L118.762 84.3006L130.351 123.451C131.839 128.48 137.142 131.36 142.171 129.872C147.2 128.383 150.081 123.08 148.592 118.051L139.579 87.6008C139.166 86.208 139.964 84.7396 141.357 84.3274C142.749 83.9152 144.218 84.7127 144.63 86.1055L146.126 91.157C147.225 94.8708 151.141 96.9982 154.855 95.8988C158.569 94.7994 160.696 90.8834 159.597 87.1693L155.526 73.4178L159.736 72.1717L160.068 73.2942C161.992 79.7936 168.845 83.516 175.344 81.5921C179.414 80.3873 182.532 77.1558 183.676 73.1777C185.029 73.3739 186.405 73.3161 187.759 73.0068L207.912 141.088L212.122 139.841ZM197.21 89.4655L208.857 86.0178C210.018 85.6742 211.242 86.3389 211.585 87.4997L218.398 110.513C218.741 111.673 218.076 112.897 216.916 113.241L205.269 116.688L197.21 89.4655ZM231.7 114.206C232.731 117.687 230.737 121.359 227.255 122.389L208.592 127.914L206.515 120.898L218.162 117.45C221.644 116.419 223.638 112.748 222.607 109.266L215.795 86.2536C214.764 82.7719 211.093 80.7775 207.611 81.8083L195.964 85.2559L193.887 78.2397L212.55 72.7152C216.032 71.6845 219.703 73.6788 220.734 77.1605L231.7 114.206Z" fill="black"/>
<path d="M198.107 139.412L193.336 140.824L194.582 145.034L199.353 143.622L198.107 139.412Z" fill="black"/>
<path d="M184.78 88.7192L180.57 89.9653L181.816 94.1749L186.026 92.9288L184.78 88.7192Z" fill="white"/>
<path d="M191.055 97.5449L186.846 98.791L188.092 103.001L192.301 101.754L191.055 97.5449Z" fill="white"/>
<path d="M184.702 110.109L180.492 111.355L181.738 115.565L185.948 114.318L184.702 110.109Z" fill="white"/>
<path d="M194.178 117.376L189.969 118.623L191.215 122.832L195.424 121.586L194.178 117.376Z" fill="white"/>
<path d="M174.181 119.938L169.971 121.185L171.217 125.394L175.427 124.148L174.181 119.938Z" fill="white"/>
<path d="M186.516 127.581L182.306 128.827L183.552 133.036L187.762 131.79L186.516 127.581Z" fill="white"/>
<path d="M199.498 127.096L195.288 128.342L196.534 132.551L200.744 131.305L199.498 127.096Z" fill="white"/>
<path d="M175.995 137.41L171.786 138.656L173.032 142.866L177.241 141.62L175.995 137.41Z" fill="white"/>
<path d="M164.74 133.416L160.531 134.662L161.777 138.872L165.986 137.626L164.74 133.416Z" fill="white"/>
<path d="M156.745 142.498L152.536 143.744L153.782 147.954L157.991 146.708L156.745 142.498Z" fill="white"/>
<path d="M173.698 98.7148L169.488 99.9609L170.734 104.171L174.944 102.924L173.698 98.7148Z" fill="white"/>
<path d="M153.7 101.276L149.491 102.522L150.737 106.732L154.946 105.486L153.7 101.276Z" fill="white"/>
<path d="M165.703 107.796L161.493 109.042L162.739 113.252L166.949 112.006L165.703 107.796Z" fill="white"/>
<path d="M159.349 120.36L155.14 121.606L156.386 125.816L160.595 124.57L159.349 120.36Z" fill="white"/>
<path d="M149.908 133.839L145.699 135.085L146.945 139.295L151.154 138.048L149.908 133.839Z" fill="white"/>
<path d="M142.641 143.315L138.432 144.562L139.678 148.771L143.887 147.525L142.641 143.315Z" fill="white"/>
<path d="M136.927 134.324L132.717 135.57L133.963 139.779L138.173 138.533L136.927 134.324Z" fill="white"/>
<path d="M170.604 86.2002L166.394 87.4463L167.64 91.6559L171.85 90.4098L170.604 86.2002Z" fill="white"/>
<path d="M10.3694 82.748L5.96587 121.13C5.41309 125.948 9.0777 130.325 14.1519 130.908L36.8127 133.507L38.1471 121.876L23.1421 120.155C20.6065 119.864 18.773 117.674 19.0492 115.266L21.7847 91.4228C22.0609 89.0152 24.3428 87.2973 26.8784 87.5882L41.8834 89.3097L43.2178 77.6787L20.557 75.0789C15.4825 74.4964 10.9222 77.9298 10.3694 82.748Z" fill="#D8D7DA"/>
<path d="M37.0939 76.9756L43.2183 77.6782L41.8839 89.3093L35.7595 88.6066L37.0939 76.9756Z" fill="#ACABB1"/>
<path d="M32.0231 121.173L38.1475 121.876L36.8131 133.507L30.6887 132.804L32.0231 121.173Z" fill="#ACABB1"/>
<path d="M44.9859 62.2671L127.667 71.7529L118.576 150.989L35.8953 141.503L44.9859 62.2671Z" fill="#FDD844"/>
<path d="M44.9859 62.2671L43.326 76.736C43.8258 76.8405 44.3316 76.9221 44.849 76.9815C46.0524 77.1196 47.2651 77.123 48.4621 76.9953C51.2001 80.4969 55.3824 82.9035 60.086 83.4431C65.7052 84.0878 70.9917 82.0076 74.4828 78.2982L74.0301 82.2441C73.3586 88.0973 77.8254 93.4324 83.9896 94.1396C87.6979 94.5651 91.1875 93.2214 93.5245 90.8058L91.2217 110.878C90.394 118.092 95.9031 124.672 103.501 125.544C111.098 126.416 117.954 121.254 118.782 114.04L123.019 77.1118L127 77.5686L127.667 71.7532L44.9859 62.2674L44.9859 62.2671Z" fill="#FDAB08"/>
<path d="M37.6036 58.8719C37.3321 59.5627 37.1456 60.2953 37.0575 61.0631C36.4864 66.0411 40.2736 70.5648 45.5164 71.1663C47.7243 71.4197 49.8371 70.9343 51.5884 69.9185C52.6335 73.9241 56.1996 77.1055 60.753 77.6279C66.5865 78.2972 71.8331 74.3475 72.4686 68.8083L72.8522 65.4644L82.0391 66.5183L80.1543 82.9472C80.0021 84.2733 80.4311 85.5363 81.2439 86.5103C82.0601 87.4819 83.26 88.1645 84.6566 88.3247C87.4462 88.6448 89.9559 86.7555 90.2598 84.1066L90.8603 78.8725C91.0124 77.5464 91.7163 76.4134 92.7286 75.6487C93.7436 74.8872 95.0669 74.4941 96.4635 74.6543C99.2531 74.9744 101.27 77.3829 100.966 80.0318L97.3462 111.581C97.116 113.587 97.7645 115.506 98.998 116.979C100.231 118.452 102.055 119.486 104.168 119.729C108.397 120.214 112.197 117.353 112.658 113.338L117.562 70.5935L128.953 71.9004C136.052 72.7148 142.614 68.0322 143.449 61.2963C144.139 55.7162 140.779 50.5435 135.596 48.4257C134.897 40.998 128.78 34.7609 120.693 33.8331C120.491 33.8099 120.291 33.7958 120.091 33.7788L120.092 33.7759C119.135 30.617 117.555 27.6782 115.467 25.1084C111.172 19.8166 104.734 16.0936 97.231 15.2329C86.4487 13.9959 76.4662 19.0138 71.2673 27.2788C71.248 27.312 71.2259 27.3419 71.2097 27.3754C71.1265 27.5045 71.0496 27.6339 70.9729 27.7637C70.9352 27.8213 70.904 27.8767 70.8695 27.9344C70.7884 28.0725 70.7104 28.2108 70.6327 28.3493C68.4947 26.9993 66.0026 26.0859 63.2896 25.7746C62.7446 25.7121 62.2024 25.6764 61.6674 25.6623C53.7953 25.481 46.908 30.5621 45.1286 37.7969C45.0878 37.801 45.0439 37.8048 45.003 37.809C41.3224 38.1411 38.042 39.9622 35.9223 42.7004C34.6757 44.3161 33.83 46.2518 33.5511 48.3851C33.0217 52.4039 34.6797 56.2354 37.6036 58.8719Z" fill="white"/>
<path d="M33.5983 141.241L120.873 151.253C124.678 151.69 127.427 154.973 127.012 158.586C126.598 162.2 123.177 164.775 119.371 164.338L32.0971 154.326C28.2919 153.889 25.5431 150.606 25.9576 146.993C26.3722 143.379 29.7931 140.804 33.5983 141.241Z" fill="#D8D7DA"/>
<path d="M102.185 47.7656C103.167 39.2053 111.118 33.0498 120.091 33.7758C119.135 30.617 117.555 27.6781 115.467 25.1084C107.455 26.0225 100.433 30.4666 96.4149 36.9237C93.6389 41.3842 96.7381 47.1407 102.185 47.7656Z" fill="#D8D7DA"/>
<path d="M35.9219 42.7002C37.0244 50.2658 41.7672 56.931 48.5637 60.8003C53.2837 63.4875 59.2937 60.6006 59.8865 55.4337C50.7181 54.3818 44.0794 46.5056 45.0027 37.8088C41.322 38.1408 38.0417 39.962 35.9219 42.7002Z" fill="#D8D7DA"/>
<path d="M58.5004 36.4203C58.1358 39.598 58.2393 42.7859 58.7958 45.9016C59.7044 50.9894 65.4921 53.871 70.3392 51.6248C68.1211 47.3784 67.1098 42.5075 67.6872 37.4742C68.0849 34.0083 69.1989 30.7894 70.8696 27.9349C70.7885 28.073 70.7105 28.2112 70.6328 28.3497C68.4948 26.9998 66.0027 26.0863 63.2897 25.7751C62.7447 25.7126 62.2025 25.6769 61.6675 25.6627C59.9958 29.0382 58.9338 32.6429 58.5004 36.4203Z" fill="#D8D7DA"/>
<path d="M94.3146 56.8791L103.501 57.9331L103.001 62.2946L93.8142 61.2406L94.3146 56.8791Z" fill="black"/>
<path d="M56.3789 40.4165L51.8792 39.3686C53.0074 34.781 57.59 31.7492 62.5386 32.3169L62.0382 36.6784C59.41 36.3769 56.9772 37.9839 56.3789 40.4165Z" fill="black"/>
<path d="M80.8429 33.602L76.7594 31.501C80.5925 24.6585 88.3337 20.8407 96.4805 21.7754L95.9801 26.1369C89.727 25.4195 83.7852 28.3496 80.8429 33.602Z" fill="black"/>
<path d="M119.442 44.737L119.942 40.3754C124.596 40.9093 128.276 44.5096 128.693 48.9362L124.09 49.277C123.87 46.9303 121.915 45.0207 119.442 44.737Z" fill="black"/>
<path d="M109.125 62.9972L109.626 58.6357L130.203 60.9964C131.046 61.0933 131.892 60.5648 131.975 59.8876C132.076 59.0775 131.405 58.6169 131.138 58.5079L132.922 54.4752C134.93 55.2963 136.927 57.5168 136.564 60.4515C136.188 63.4946 133.045 65.7415 129.702 65.358L109.125 62.9972Z" fill="black"/>
<path d="M20.8073 72.8979L41.1713 75.2342L41.508 72.2992C37.0546 70.2554 34.1983 65.7005 34.7606 60.7999C34.8128 60.3447 34.8941 59.8931 35.0038 59.4489C32.1115 56.3067 30.7217 52.1539 31.2571 48.0857C32.0662 41.9374 37.0175 36.994 43.3042 35.8217C46.0549 27.7439 54.4816 22.5545 63.5397 23.5937C65.7387 23.846 67.8309 24.4396 69.7854 25.3642C72.4395 21.4385 76.1016 18.2362 80.4867 16.0272C85.6953 13.4025 91.572 12.374 97.4812 13.052C108.761 14.3461 118.165 21.6294 121.84 31.7754C129.984 33.0834 136.42 39.2672 137.729 46.9814C143.224 49.8111 146.478 55.6328 145.743 61.5792C144.81 69.1222 137.731 74.5875 129.718 74.1629L121.123 149.072C126.189 149.653 129.861 154.04 129.309 158.85C128.758 163.66 124.187 167.1 119.122 166.519L31.8472 156.506C26.7816 155.925 23.1093 151.539 23.6612 146.729C24.213 141.919 28.7832 138.478 33.8488 139.059L34.2658 135.424L13.9019 133.088C7.56968 132.362 2.97973 126.879 3.66952 120.867L8.07303 82.4844C8.76286 76.4717 14.4752 72.1714 20.8073 72.8979ZM141.154 61.0153C141.704 56.5671 139.052 52.2194 134.705 50.4423L133.419 49.917L133.295 48.5961C132.682 42.0893 127.277 36.7981 120.443 36.014C120.289 35.9964 120.137 35.9847 119.984 35.9725L119.626 35.9439C112.021 35.4789 105.316 40.7529 104.482 48.0291L99.8884 47.5021C100.877 38.8836 108.11 32.3965 116.839 31.6053C113.389 23.8892 105.881 18.4346 96.9805 17.4135C87.3032 16.3032 78.0919 20.6352 73.208 28.5017C73.0104 28.8193 72.8196 29.1401 72.6388 29.465L72.6025 29.5295C71.1973 32.0734 70.317 34.8284 69.9832 37.7372C69.473 42.1843 70.3101 46.6553 72.404 50.666L68.2699 52.5818C65.7794 47.8108 64.7836 42.4953 65.39 37.2099C65.7102 34.4187 66.4562 31.7465 67.6111 29.2273C66.176 28.5696 64.6465 28.1393 63.0391 27.9549C55.7698 27.1209 49.0377 31.5773 47.3793 38.3205L47.2416 38.8797C46.9385 46.0364 52.5334 52.38 60.1364 53.2523L59.6361 57.6138C50.2867 56.5412 43.24 49.1962 42.6507 40.5573C39.0436 41.8202 36.3355 44.9279 35.8419 48.681C35.4298 51.8129 36.6787 55.0304 39.1828 57.2873L40.3064 58.3L39.7684 59.6649C39.5586 60.1973 39.4193 60.7561 39.3539 61.3266C38.9216 65.0943 41.7982 68.5301 45.7662 68.9854C47.3899 69.1717 48.9808 68.8449 50.3669 68.0399L53.0632 66.4747L53.8298 69.4139C54.6674 72.6264 57.5505 75.0509 61.0031 75.447C65.5621 75.9701 69.6754 72.8738 70.1721 68.5446L70.8059 63.02L84.586 64.6009L82.451 83.2107C82.2854 84.6538 83.3873 85.9695 84.9067 86.1438C86.4261 86.3181 87.7973 85.2861 87.9629 83.8431L88.5634 78.6092C89.0048 74.7614 92.6613 72.0088 96.7136 72.4737C100.766 72.9386 103.704 76.4475 103.262 80.2956L99.6429 111.845C99.321 114.651 101.463 117.209 104.418 117.548C107.373 117.887 110.039 115.88 110.361 113.074L115.515 68.1493L129.202 69.7196C135.114 70.3979 140.476 66.493 141.154 61.0153ZM33.3484 143.421C30.8156 143.13 28.5307 144.851 28.2547 147.256C27.9788 149.661 29.8148 151.853 32.3476 152.144L119.622 162.157C122.155 162.447 124.44 160.727 124.716 158.322C124.992 155.917 123.156 153.724 120.623 153.434L57.0808 146.144L57.5812 141.782L116.53 148.545L125.12 73.6705L119.608 73.0382L114.954 113.601C114.357 118.813 109.405 122.539 103.918 121.91C98.4306 121.28 94.4521 116.529 95.0499 111.318L98.6695 79.7687C98.835 78.3256 97.7332 77.0099 96.2137 76.8356C94.6943 76.6613 93.3231 77.6932 93.1576 79.1363L92.5571 84.3701C92.1156 88.2179 88.4594 90.9706 84.4069 90.5057C80.3543 90.0407 77.4165 86.5318 77.858 82.6838L79.4926 68.4358L74.8994 67.9088L74.7659 69.0719C73.9934 75.8059 67.5951 80.6225 60.5033 79.8089C56.0621 79.2994 52.2269 76.6312 50.296 72.8969C48.9317 73.3163 47.4958 73.4889 46.035 73.4098L37.9423 143.948L33.3484 143.421ZM39.3365 91.2268L26.628 89.7688C25.3615 89.6234 24.219 90.4835 24.081 91.6862L21.3455 115.53C21.2075 116.732 22.1255 117.829 23.3921 117.974L36.1006 119.432L39.3365 91.2268ZM8.26279 121.394C7.84892 125.001 10.6029 128.291 14.4023 128.727L34.7662 131.063L35.6002 123.794L22.8917 122.336C19.0923 121.9 16.3384 118.61 16.7522 115.003L19.4877 91.1592C19.9016 87.5518 23.329 84.9713 27.1284 85.4072L39.8369 86.8653L40.6709 79.5957L20.307 77.2594C16.5076 76.8235 13.0802 79.404 12.6663 83.0114L8.26279 121.394Z" fill="black"/>
<path d="M47.7821 140.658L52.9878 141.255L52.4874 145.616L47.2817 145.019L47.7821 140.658Z" fill="black"/>
<path d="M52.0703 88.4159L56.6636 88.9429L56.1632 93.3044L51.5699 92.7774L52.0703 88.4159Z" fill="white"/>
<path d="M47.228 98.1713L51.8213 98.6982L51.3209 103.06L46.7276 102.533L47.228 98.1713Z" fill="white"/>
<path d="M56.1655 109.508L60.7588 110.035L60.2584 114.396L55.6651 113.869L56.1655 109.508Z" fill="white"/>
<path d="M47.7158 118.261L52.3091 118.788L51.8087 123.149L47.2154 122.622L47.7158 118.261Z" fill="white"/>
<path d="M68.9058 117.451L73.499 117.978L72.9986 122.339L68.4054 121.812L68.9058 117.451Z" fill="white"/>
<path d="M57.5659 127.05L62.1592 127.577L61.6588 131.938L57.0655 131.411L57.5659 127.05Z" fill="white"/>
<path d="M44.0312 128.738L48.6245 129.265L48.1241 133.626L43.5309 133.099L44.0312 128.738Z" fill="white"/>
<path d="M70.3061 134.993L74.8994 135.52L74.399 139.882L69.8058 139.355L70.3061 134.993Z" fill="white"/>
<path d="M81.2124 129.173L85.8057 129.7L85.3053 134.062L80.712 133.535L81.2124 129.173Z" fill="white"/>
<path d="M91.1963 136.801L95.7896 137.328L95.2892 141.689L90.6959 141.162L91.1963 136.801Z" fill="white"/>
<path d="M65.4228 96.4291L70.0161 96.9561L69.5157 101.318L64.9225 100.791L65.4228 96.4291Z" fill="white"/>
<path d="M86.6128 95.619L91.2061 96.146L90.7057 100.508L86.1124 99.9806L86.6128 95.619Z" fill="white"/>
<path d="M75.4072 104.056L80.0005 104.583L79.5001 108.944L74.9068 108.417L75.4072 104.056Z" fill="white"/>
<path d="M84.3447 115.392L88.938 115.919L88.4376 120.28L83.8443 119.753L84.3447 115.392Z" fill="white"/>
<path d="M96.6514 127.115L101.245 127.642L100.744 132.004L96.151 131.477L96.6514 127.115Z" fill="white"/>
<path d="M105.956 135.253L110.549 135.78L110.049 140.142L105.456 139.615L105.956 135.253Z" fill="white"/>
<path d="M110.186 125.428L114.779 125.955L114.278 130.316L109.685 129.789L110.186 125.428Z" fill="white"/>
<path d="M66.2778 83.5648L70.8711 84.0918L70.3707 88.4533L65.7774 87.9263L66.2778 83.5648Z" fill="white"/>
</svg>
