<svg width="30" height="30" viewBox="0 0 30 30" fill="none" xmlns="http://www.w3.org/2000/svg">
<path d="M16.381 26.5933L24.3696 24.4521C25.0036 24.2827 25.3843 23.6227 25.2133 22.9887L21.8627 10.479C21.4207 8.82841 19.922 7.96513 18.4282 8.36527C17.5861 7.49078 16.3052 7.08905 15.0501 7.42618C13.8628 7.74409 12.9869 8.64447 12.6465 9.73841" stroke="#29292E" stroke-miterlimit="10" stroke-linecap="round" stroke-linejoin="round"/>
<path d="M7.9439 13.3317L6.20488 12.8653C4.57717 12.4297 2.88812 13.4043 2.45087 15.0323L1.10385 20.0617C0.668373 21.6897 1.64274 23.3791 3.27204 23.8163L5.00947 24.2827" stroke="#29292E" stroke-miterlimit="10" stroke-linecap="round" stroke-linejoin="round"/>
<path d="M5.63996 21.9321L4.37034 21.5917C3.77989 21.4336 3.42175 20.8124 3.57991 20.2218L4.67527 16.1332C4.83337 15.5426 5.45438 15.1829 6.04488 15.3425L7.31456 15.6814" stroke="#29292E" stroke-miterlimit="10" stroke-linecap="round" stroke-linejoin="round"/>
<path d="M8.13721 12.6058L13.7318 14.1047L13.3882 15.3874C13.2107 16.0506 13.6076 16.738 14.269 16.9155C14.9321 17.093 15.6193 16.696 15.7968 16.0329M16.1403 14.7518L15.4466 17.3431C15.2111 18.2192 15.7354 19.1277 16.6113 19.3616C17.4873 19.5972 18.3956 19.0727 18.6295 18.1966" stroke="#29292E" stroke-miterlimit="10" stroke-linecap="round" stroke-linejoin="round"/>
<path d="M6.91268 26.9244L5.63184 26.5807C4.99615 26.4097 4.61553 25.7514 4.78655 25.1157L8.13711 12.606C8.57908 10.957 10.0795 10.0921 11.5716 10.4923C12.4153 9.61932 13.6946 9.21764 14.9497 9.55484C16.2064 9.89044 17.113 10.878 17.4066 12.0574C18.9004 12.4576 19.7667 13.9549 19.3247 15.6039L15.9725 28.1151C15.803 28.7493 15.1433 29.1301 14.5092 28.9591L11.8491 28.2475" stroke="#29292E" stroke-miterlimit="10" stroke-linecap="round" stroke-linejoin="round"/>
<path d="M28.872 17.8435L28.8961 17.9338C29.3317 19.5634 28.3573 21.2528 26.7296 21.6885L24.9906 22.1548M22.0562 11.2038L23.7952 10.7375C25.4229 10.3018 27.112 11.2764 27.5492 12.9061" stroke="#29292E" stroke-miterlimit="10" stroke-linecap="round" stroke-linejoin="round"/>
<path d="M24.3615 19.8042L25.6295 19.4653C26.2199 19.3072 26.5796 18.6844 26.4216 18.0939L25.3262 14.0052C25.1665 13.4147 24.5454 13.0565 23.955 13.2146L22.687 13.5534" stroke="#29292E" stroke-miterlimit="10" stroke-linecap="round" stroke-linejoin="round"/>
<path d="M21.8626 10.4791L17.2988 11.7021" stroke="#29292E" stroke-miterlimit="10" stroke-linecap="round" stroke-linejoin="round"/>
<path d="M9.22607 4.87906L10.5457 7.15088" stroke="#29292E" stroke-miterlimit="10" stroke-linecap="round" stroke-linejoin="round"/>
<path d="M5.89355 7.73969L8.43439 8.4126" stroke="#29292E" stroke-miterlimit="10" stroke-linecap="round" stroke-linejoin="round"/>
<path d="M13.3755 3.41868L12.6899 5.95508" stroke="#29292E" stroke-miterlimit="10" stroke-linecap="round" stroke-linejoin="round"/>
<path d="M23.6987 7.33789C24.5165 7.33789 25.1844 6.66987 25.1844 5.85178C25.1844 5.03375 24.5165 4.36738 23.6987 4.36738C22.8807 4.36738 22.2129 5.03375 22.2129 5.85178C22.2129 6.66987 22.8807 7.33789 23.6987 7.33789Z" stroke="#29292E" stroke-miterlimit="10" stroke-linecap="round" stroke-linejoin="round"/>
<path d="M18.2461 3.48291C18.8897 3.48291 19.414 2.95853 19.414 2.31476C19.414 1.67258 18.8897 1.14655 18.2461 1.14655C17.604 1.14655 17.0781 1.67258 17.0781 2.31476C17.0781 2.95853 17.604 3.48291 18.2461 3.48291Z" stroke="#29292E" stroke-miterlimit="10" stroke-linecap="round" stroke-linejoin="round"/>
<path d="M3.43303 3.9707C4.2509 3.9707 4.91715 3.30434 4.91715 2.4863C4.91715 1.66821 4.2509 1.00019 3.43303 1.00019C2.61506 1.00019 1.94727 1.66821 1.94727 2.4863C1.94727 3.30434 2.61506 3.9707 3.43303 3.9707Z" stroke="#29292E" stroke-miterlimit="10" stroke-linecap="round" stroke-linejoin="round"/>
<path d="M2.70612 11.1846C3.34807 11.1846 3.87239 10.6586 3.87239 10.0164C3.87239 9.37259 3.34807 8.84816 2.70612 8.84816C2.06235 8.84816 1.53809 9.37259 1.53809 10.0164C1.53809 10.6586 2.06235 11.1846 2.70612 11.1846Z" stroke="#29292E" stroke-miterlimit="10" stroke-linecap="round" stroke-linejoin="round"/>
<path d="M9.37793 27.5842L9.38134 27.5859" stroke="#29292E" stroke-miterlimit="10" stroke-linecap="round" stroke-linejoin="round"/>
<path d="M28.2056 15.372L28.2082 15.3745" stroke="#29292E" stroke-miterlimit="10" stroke-linecap="round" stroke-linejoin="round"/>
</svg>
