<svg width="21" height="26" viewBox="0 0 21 26" fill="none" xmlns="http://www.w3.org/2000/svg">
<path d="M19.4347 10.8182C19.4347 18.4545 10.3477 25 10.3477 25C10.3477 25 1.26074 18.4545 1.26074 10.8182C1.26074 8.21424 2.21812 5.71695 3.92225 3.87568C5.62639 2.03441 7.93769 1 10.3477 1C12.7577 1 15.069 2.03441 16.7731 3.87568C18.4773 5.71695 19.4347 8.21424 19.4347 10.8182Z" stroke="#CAA520" stroke-width="2" stroke-linecap="round" stroke-linejoin="round"/>
<path d="M10.3478 14C12.1968 14 13.6957 12.433 13.6957 10.5C13.6957 8.567 12.1968 7 10.3478 7C8.49887 7 7 8.567 7 10.5C7 12.433 8.49887 14 10.3478 14Z" stroke="#CAA520" stroke-width="2" stroke-linecap="round" stroke-linejoin="round"/>
</svg>
